<?xml version="1.0" encoding="UTF-8"?>
<svg xmlns="http://www.w3.org/2000/svg" version="1.1" viewBox="0 0 1052.7 1080">
  <defs>
    <style>
      .cls-1, .cls-2 {
        fill: #fff;
      }

      .cls-2 {
        stroke: #000;
        stroke-miterlimit: 10;
      }
    </style>
  </defs>
  <!-- Generator: Adobe Illustrator 28.7.1, SVG Export Plug-In . SVG Version: 1.2.0 Build 142)  -->
  <g>
    <g id="Layer_1">
      <path class="cls-2" d="M1138,506.4"/>
      <path class="cls-1" d="M902.8,185.3c-31.2-34.2-120.7-123.1-268.1-155.5-124.9-27.5-227.8-.5-277.6,16.7-21.7,7.5-108,39-192.2,119.2-29.4,28-105,101.6-142.9,221.8-65.4,207.4,34.2,386.8,48.2,411.1,11.5,20,123.3,206.8,353.4,252.8,62.4,12.5,170,21.9,287.8-24.5,149.8-59,223.7-171.9,245.8-206.8,60.4-95.2,74.5-185.2,78.6-221.5,11.6-101.7-9.6-182.9-24.2-226.1l-292.2,181.3-68.2,244.5c-12.6,59.2-61.3,89.5-94.7,80.1-31.1-8.7-42.9-50.1-44-53.8l-254.1-448.7c-18.3-20.5-16.3-35-15.6-38.5,4.8-25,46.9-46.2,105.2-39.1l265.1,63,289.7-176.2Z"/>
    </g>
  </g>
</svg>